# xmcd
#
# Track frame offsets:
#	150
#	21572
#	48892
#
# Disc length: 985 seconds
#
# Revision: 3
# Processed by: cddbd v1.5.2PL0 Copyright (c) Steve Scherf et al.
# Submitted via: EasyCDDAExtractor 2010.4.0.0
#
DISCID=1f03d703
DTITLE=CPR
DYEAR=1998
DGENRE=Pop
TTITLE0=Morrison
TTITLE1=I Don't Want to Be With Nobody But You
TTITLE2=Won't Let Me Be (Georgia's Song)
EXTD=
EXTT0=
EXTT1=
EXTT2=
PLAYORDER=
